HIERARCHY
ROOT HipCenter
{
    OFFSET 0.0 0.0 -0.0
    CHANNELS 6 Xposition Yposition Zposition Zrotation Xrotation Yrotation
    JOINT Spine
    {
        OFFSET 0.0 27.761974334716797 0.0
        CHANNELS 3 Zrotation Xrotation Yrotation
        JOINT ShoulderCenter
        {
            OFFSET 0.0 20.85029411315918 0.0
            CHANNELS 3 Zrotation Xrotation Yrotation
            JOINT LeftShoulder
            {
                OFFSET 16.07372283935547 0.0 0.0
                CHANNELS 3 Zrotation Xrotation Yrotation
                JOINT LeftElbow
                {
                    OFFSET 24.819278717041016 0.0 0.0
                    CHANNELS 3 Zrotation Xrotation Yrotation
                    JOINT LeftWrist
                    {
                        OFFSET 22.189950942993164 0.0 0.0
                        CHANNELS 3 Zrotation Xrotation Yrotation
                        JOINT LeftHand
                        {
                            OFFSET 6.646923065185547 0.0 0.0
                            CHANNELS 3 Zrotation Xrotation Yrotation
                            End Site
                            {
                                OFFSET 2.658769130706787 0.0 0.0
                            }
                        }
                    }
                }
            }
            JOINT RightShoulder
            {
                OFFSET -16.07372283935547 0.0 0.0
                CHANNELS 3 Zrotation Xrotation Yrotation
                JOINT RightElbow
                {
                    OFFSET -24.819278717041016 0.0 0.0
                    CHANNELS 3 Zrotation Xrotation Yrotation
                    JOINT RightWrist
                    {
                        OFFSET -22.189950942993164 0.0 0.0
                        CHANNELS 3 Zrotation Xrotation Yrotation
                        JOINT RightHand
                        {
                            OFFSET -6.646923065185547 0.0 0.0
                            CHANNELS 3 Zrotation Xrotation Yrotation
                            End Site
                            {
                                OFFSET -2.658769130706787 0.0 0.0
                            }
                        }
                    }
                }
            }
            End Site
            {
                OFFSET 0.0 8.340116500854492 0.0
            }
        }
    }
    JOINT LeftHip
    {
        OFFSET 8.521768569946289 0.0 0.0
        CHANNELS 3 Zrotation Xrotation Yrotation
        JOINT LeftKnee
        {
            OFFSET 0.0 -30.08674430847168 0.0
            CHANNELS 3 Zrotation Xrotation Yrotation
            JOINT LeftAnkle
            {
                OFFSET 0.0 -34.07088851928711 0.0
                CHANNELS 3 Zrotation Xrotation Yrotation
                JOINT LeftFoot
                {
                    OFFSET 0.0 -11.55875015258789 0.0
                    CHANNELS 3 Zrotation Xrotation Yrotation
                    End Site
                    {
                        OFFSET 0.0 0.0 4.623499870300293
                    }
                }
            }
        }
    }
    JOINT RightHip
    {
        OFFSET -8.521768569946289 0.0 0.0
        CHANNELS 3 Zrotation Xrotation Yrotation
        JOINT RightKnee
        {
            OFFSET 0.0 -30.08674430847168 0.0
            CHANNELS 3 Zrotation Xrotation Yrotation
            JOINT RightAnkle
            {
                OFFSET 0.0 -34.07088851928711 0.0
                CHANNELS 3 Zrotation Xrotation Yrotation
                JOINT RightFoot
                {
                    OFFSET 0.0 -11.55875015258789 0.0
                    CHANNELS 3 Zrotation Xrotation Yrotation
                    End Site
                    {
                        OFFSET 0.0 0.0 4.623499870300293
                    }
                }
            }
        }
    }
}
MOTION
Frames: 4
Frame Time: 0.03333333333333333
29.404911041259766 17.165241241455078 -387.1875 24.677973882306752 29.283341363695147 -178.89458814607738 -0.17465486422636806 -3.772224775268057 -0.2169989587564762 -2.7816103797404104e-07 -2.1420233688589037e-06 -19.063993677732196 -59.76798361648732 -44.95622136942171 10.221263919092488 -6.672649043481526e-06 3.0032069156469893e-06 18.415316840798297 -179.9999961890991 35.34647461929405 -120.2442080358977 -3.1805546814635168e-15 6.3611093629270335e-15 -1.5902773407317582e-15 61.66777801643678 -42.06032441225463 -10.652134629156986 -3.155939262597972e-06 -1.3046768756220022e-06 -28.24919427988372 5.490768196861153e-07 -22.387988047970012 -15.180608473436099 0.0 1.2722218725854067e-14 0.0 41.108130723625024 14.270359660648182 13.075252839035395 27.897499685932686 -37.57267110187765 44.228975921776424 142.53960830008623 20.679273275450043 178.32395048901864 -3.531125038440127e-31 -1.2722218725854067e-14 -3.1805546814635168e-15 102.14883064234739 62.60581577437101 -109.58229894345345 104.8836614810866 -51.088617404365394 115.73783515680383 129.69718880579666 83.85943340557154 -165.79825614552297 1.5902773407317584e-15 -3.862168010793889e-32 -2.782985346280577e-15
29.870620727539062 16.98036003112793 -387.15020751953125 25.323139100311543 28.849093295779156 179.6984290160909 0.4198615562428852 -3.3610439496364934 -0.25377797156405396 4.0295540252587786e-07 -2.6975189559095582e-06 -13.831780230605936 -65.38407672799897 -29.323241635479953 7.513824377642642 -3.1976620747599035e-06 -4.520679216424972e-06 10.891841222414627 179.9999980630144 68.3908617823737 -134.2525560141574 -3.1805546814635168e-15 -8.827812596100317e-32 3.1805546814635168e-15 42.90124438059948 -55.14557687613601 -28.78548918314525 5.934060799350035e-07 7.348916202784087e-07 -27.78143064381338 -1.2966032021817595e-06 -17.568854467615086 -18.485759625260126 6.361109362927033e-15 0.0 0.0 42.94405842862145 15.013781048109546 12.653911087029778 26.169226948854114 -37.706928136844994 43.39133207763604 147.10852595227306 18.63878113607575 177.1891830900208 -2.3854160110976376e-15 6.620859447075238e-32 -3.1805546814635168e-15 74.2919635303046 46.913334048062595 -80.31518983625456 69.6989647353517 -59.65813335458613 92.78889810221948 172.4800107830712 82.89223960547658 157.3651686373306 0.0 0.0 7.951386703658792e-16
29.954099655151367 16.90814971923828 -387.406494140625 24.790459560473426 28.67704246102084 177.95300996560232 1.3953843232282792 -1.3898983813355255 -0.03841537449850208 -4.1316084503127645e-07 -1.3263572741261327e-07 -19.91118086257675 -62.29640699652246 -42.914566101199945 12.200128984236548 3.3094542970300794e-07 -5.236338244422167e-06 9.115327230867896 179.9999914045709 77.27851157434517 -125.36037871047623 -1.5902773407317584e-15 -4.4139062980501586e-32 3.1805546814635168e-15 55.10417632873493 -49.0019645898998 -1.0926762374656118 -1.020324491822752e-06 1.1758245604916592e-07 -39.97644770542808 1.7202836634520842e-07 6.703533836754918 -21.753636299060588 0.0 0.0 0.0 44.214056936718315 17.3759829430472 10.5498390595778 24.25249297517085 -36.01450399155568 43.81103825606913 153.57208615165635 23.271695262626455 173.03854050367852 -1.7655625192200634e-31 6.3611093629270335e-15 3.1805546814635168e-15 73.181590047974 48.77935120957638 -80.5822479631563 69.95135493420528 -58.633477290671514 91.92986093011822 137.29399175715858 82.5788615871966 -168.73872659540865 1.5902773407317582e-15 1.6552148617688095e-32 1.1927080055488186e-15
30.39632225036621 16.622758865356445 -387.6671142578125 23.42208579449345 31.76140812083609 178.7827814958808 0.29723216954920584 -4.983600950913495 -0.12321068966982121 9.27338382856525e-07 5.622624679004509e-07 -16.703608610097373 -79.5796402412265 26.039860788433746 9.223984977373421 1.4089340672317035e-06 9.013444491044122e-06 23.17701672714453 -179.9999983821325 38.389932752466805 -156.79991761548186 1.3241718894150476e-31 3.1805546814635168e-15 -4.770832022195275e-15 52.59643943482043 -43.14364497269709 -10.729990315064253 -2.671650162062124e-07 4.489566279272657e-06 -36.945860625843544 -4.754915063082039e-07 -48.455191996612776 -24.779923095519717 0.0 0.0 -6.3611093629270335e-15 44.212097287863465 17.440758408346685 9.656287124274396 19.440990813031505 -32.25568050757409 36.07181507408684 145.14951429849884 23.594379885047584 176.71363513559118 -7.951386703658794e-16 -6.3611093629270335e-15 -3.1805546814635168e-15 76.92603228934942 49.01253753215313 -86.89850358363906 71.28158375347749 -58.19006429173506 94.40150281885886 152.87487790712177 85.02724708890526 175.40821517282478 -1.5902773407317588e-15 6.361109362927035e-15 1.5902773407317588e-15
